<svg width="10" height="12" viewBox="0 0 10 12" fill="none" xmlns="http://www.w3.org/2000/svg">
<path d="M9.86001 5.523C9.86001 5.859 9.83602 6.153 9.78802 6.405H2.15601C2.19201 7.425 2.47401 8.181 3.00201 8.673C3.53001 9.165 4.18402 9.411 4.96402 9.411C5.64802 9.411 6.22402 9.237 6.69202 8.889C7.17202 8.541 7.46602 8.079 7.57402 7.503H9.77002C9.63802 8.199 9.36201 8.817 8.94202 9.357C8.52202 9.897 7.97602 10.323 7.30402 10.635C6.63202 10.935 5.88202 11.085 5.05402 11.085C4.09402 11.085 3.24201 10.881 2.49801 10.473C1.76602 10.065 1.19001 9.477 0.770015 8.709C0.350015 7.941 0.140015 7.035 0.140015 5.991C0.140015 4.959 0.350015 4.059 0.770015 3.291C1.19001 2.523 1.76602 1.935 2.49801 1.527C3.24201 1.119 4.09402 0.915001 5.05402 0.915001C6.02602 0.915001 6.87201 1.119 7.59202 1.527C8.32402 1.923 8.88202 2.475 9.26602 3.183C9.66201 3.879 9.86001 4.659 9.86001 5.523ZM7.79002 5.469C7.81402 4.821 7.70002 4.281 7.44802 3.849C7.20801 3.405 6.87201 3.081 6.44002 2.877C6.02001 2.661 5.55801 2.553 5.05402 2.553C4.25002 2.553 3.57801 2.799 3.03801 3.291C2.49801 3.783 2.20401 4.509 2.15601 5.469H7.79002Z" fill="#29A8FF"/>
</svg>