<svg width="24" height="16" viewBox="0 0 24 16" fill="none" xmlns="http://www.w3.org/2000/svg">
<path d="M3.76255 4.895C4.92655 4.895 5.85655 5.195 6.55255 5.795C7.26055 6.383 7.69255 7.175 7.84855 8.171H5.90455C5.82055 7.631 5.58655 7.199 5.20255 6.875C4.83055 6.539 4.33255 6.371 3.70855 6.371C3.19255 6.371 2.79055 6.497 2.50255 6.749C2.22655 6.989 2.08855 7.319 2.08855 7.739C2.08855 8.051 2.19055 8.303 2.39455 8.495C2.59855 8.687 2.85055 8.837 3.15055 8.945C3.46255 9.053 3.90055 9.173 4.46455 9.305C5.20855 9.473 5.80855 9.647 6.26455 9.827C6.73255 10.007 7.12855 10.295 7.45255 10.691C7.78855 11.075 7.95655 11.603 7.95655 12.275C7.95655 13.103 7.63855 13.775 7.00255 14.291C6.37855 14.807 5.53255 15.065 4.46455 15.065C3.22855 15.065 2.22655 14.777 1.45855 14.201C0.702546 13.625 0.246546 12.821 0.0905457 11.789H2.08855C2.14855 12.329 2.38855 12.767 2.80855 13.103C3.22855 13.439 3.78055 13.607 4.46455 13.607C4.95655 13.607 5.34055 13.481 5.61655 13.229C5.90455 12.965 6.04855 12.635 6.04855 12.239C6.04855 11.891 5.94055 11.615 5.72455 11.411C5.50855 11.207 5.23855 11.051 4.91455 10.943C4.59055 10.823 4.14655 10.703 3.58255 10.583C2.86255 10.415 2.27455 10.247 1.81855 10.079C1.37455 9.911 0.990546 9.641 0.666546 9.269C0.354546 8.885 0.198546 8.369 0.198546 7.721C0.198546 6.881 0.510546 6.203 1.13455 5.687C1.77055 5.159 2.64655 4.895 3.76255 4.895Z" fill="#29A8FF"/>
<path d="M9.72631 2.141C9.72631 1.793 9.84631 1.505 10.0863 1.277C10.3263 1.049 10.6443 0.934998 11.0403 0.934998C11.4363 0.934998 11.7543 1.049 11.9943 1.277C12.2463 1.505 12.3723 1.793 12.3723 2.141C12.3723 2.489 12.2463 2.771 11.9943 2.987C11.7543 3.203 11.4363 3.311 11.0403 3.311C10.6443 3.311 10.3263 3.203 10.0863 2.987C9.84631 2.771 9.72631 2.489 9.72631 2.141ZM12.0663 5.021V14.939H10.0143V5.021H12.0663Z" fill="#29A8FF"/>
<path d="M20.0935 4.859C21.2455 4.859 22.1695 5.231 22.8655 5.975C23.5615 6.719 23.9095 7.781 23.9095 9.161V14.939H21.8575V9.377C21.8575 8.489 21.6295 7.805 21.1735 7.325C20.7175 6.833 20.0935 6.587 19.3015 6.587C18.4855 6.587 17.8315 6.851 17.3395 7.379C16.8475 7.895 16.6015 8.657 16.6015 9.665V14.939H14.5495V5.021H16.6015V7.199C16.8655 6.455 17.3095 5.879 17.9335 5.471C18.5575 5.063 19.2775 4.859 20.0935 4.859Z" fill="#29A8FF"/>
</svg>